<?xml version="1.0" encoding="utf-8"?>
<!-- Generator: Adobe Illustrator 24.1.1, SVG Export Plug-In . SVG Version: 6.00 Build 0)  -->
<svg version="1.1" id="Layer_1" xmlns="http://www.w3.org/2000/svg" xmlns:xlink="http://www.w3.org/1999/xlink" x="0px" y="0px"
	 viewBox="0 0 612 612" style="enable-background:new 0 0 612 612;" xml:space="preserve">
<style type="text/css">
	.st0{fill:#AC1F24;}
</style>
<g>
	<path class="st0" d="M559.1,437.58l-34.49-51.74l8.62,45.99c0,18.68-37.37,11.5-37.37,11.5c-47.62-9.79-166.72-57.49-206.97-77.61
		c0,0-155.22-66.11-215.59-137.98c0,0-11.5-23,20.12-45.99c-29.04,7.76-57.49,23-37.37,60.36c11.04,20.85,34.57,41.03,64.84,61.63
		c-3.7,79.8,21.91,122.57,90.39,168.33c104.56,55.36,185.19,15.44,222.85-12c37.13,9.6,73.09,15.92,99.09,14.88
		C562.95,471.2,567.73,463.45,559.1,437.58z"/>
	<path class="st0" d="M497.3,309.66c0-103.98-84.3-188.28-188.28-188.28c-82.84,0-153.13,53.52-178.31,127.85
		c90.22,60.19,212.64,121.72,342.36,152.8C488.47,374.74,497.3,343.24,497.3,309.66z M267.68,263.86
		c-24.12,0-43.67-19.55-43.67-43.67c0-24.12,19.55-43.67,43.67-43.67c24.12,0,43.67,19.55,43.67,43.67
		C311.34,244.31,291.79,263.86,267.68,263.86z"/>
</g>
</svg>
